<?xml version="1.0" standalone="no"?><!-- Generator: Adobe Fireworks CS6, Export SVG Extension by Aaron Beall (http://fireworks.abeall.com) . Version: 0.6.1  --><!DOCTYPE svg PUBLIC "-//W3C//DTD SVG 1.1//EN" "http://www.w3.org/Graphics/SVG/1.1/DTD/svg11.dtd"><svg id="Untitled-Page%201" viewBox="0 0 170 25" style="background-color:#ffffff00" version="1.1"	xmlns="http://www.w3.org/2000/svg" xmlns:xlink="http://www.w3.org/1999/xlink" xml:space="preserve"	x="0px" y="0px" width="170px" height="25px">	<path d="M 102.3085 0.2154 C 92.7565 0.2154 85.0111 8.0146 85.0005 17.6377 L 85.0005 17.6476 C 85.0005 17.6512 85.0005 17.6538 85.0005 17.6538 L 85.0005 17.6377 C 84.9889 8.0146 77.2444 0.2154 67.6924 0.2154 L 67.6906 0.2154 L 0 0.2154 L 0 9.2479 L 0.5061 9.2479 L 0 9.5589 L 67.6906 9.5589 L 67.6924 9.5589 C 77.2444 9.5589 84.9889 17.359 85.0005 26.9812 L 85.0005 27 C 85.0005 27 85.0005 26.9937 85.0005 26.9919 L 85.0005 26.9812 C 85.0111 17.359 92.7565 9.5589 102.3085 9.5589 L 102.3085 9.5589 L 170 9.5589 L 169.493 9.2479 L 170 9.2479 L 170 0.2154 L 102.3085 0.2154 L 102.3085 0.2154 Z" fill="#ff5c26"/></svg>